<?xml version="1.0" standalone="no"?>
<!DOCTYPE svg PUBLIC "-//W3C//DTD SVG 20010904//EN"
 "http://www.w3.org/TR/2001/REC-SVG-20010904/DTD/svg10.dtd">
<svg version="1.0" xmlns="http://www.w3.org/2000/svg"
 width="250.000000pt" height="250.000000pt" viewBox="0 0 250.000000 250.000000"
 preserveAspectRatio="xMidYMid meet">
<metadata>
Created by potrace 1.14, written by Peter Selinger 2001-2017
</metadata>
<g transform="translate(0.000000,250.000000) scale(0.100000,-0.100000)"
fill="#000000" stroke="none">
<path d="M1249 2486 c-2 -2 -40 -7 -84 -10 -44 -3 -91 -8 -105 -11 -14 -3 -38
-8 -55 -10 -16 -3 -55 -13 -85 -22 -30 -9 -58 -17 -62 -19 -5 -1 -10 -3 -13
-4 -3 -1 -8 -3 -12 -5 -29 -7 -193 -85 -203 -95 -3 -3 -36 -26 -75 -50 -38
-25 -108 -83 -155 -130 -123 -123 -139 -143 -222 -286 -16 -25 -28 -51 -28
-57 0 -6 -7 -18 -16 -28 -8 -9 -16 -26 -17 -38 -1 -11 -5 -21 -9 -21 -4 0 -7
-3 -7 -7 1 -5 0 -11 -1 -15 -1 -5 -3 -11 -5 -15 -1 -5 -5 -15 -8 -23 -9 -21
-35 -119 -42 -155 -27 -143 -27 -345 0 -480 33 -167 117 -357 218 -494 50 -68
188 -208 239 -241 21 -14 38 -28 38 -32 0 -5 6 -8 14 -8 8 0 16 -3 18 -7 13
-30 276 -148 373 -168 140 -30 205 -38 310 -38 92 0 199 8 213 17 4 2 28 7 52
11 25 4 51 12 59 18 8 7 16 11 18 9 8 -7 73 11 73 20 0 5 4 7 9 4 4 -3 60 20
122 51 192 96 347 229 472 406 30 42 138 242 135 250 -1 1 6 25 16 53 19 59
22 69 45 194 11 61 17 136 16 210 -2 104 -5 141 -21 220 -2 14 -6 35 -9 48 -2
13 -9 40 -16 60 -13 42 -20 66 -20 69 0 4 -48 115 -67 153 -46 94 -132 212
-216 296 -87 87 -176 164 -189 164 -4 0 -30 15 -59 33 -71 45 -225 115 -270
123 -5 1 -9 2 -10 4 -2 1 -10 3 -18 5 -8 2 -35 8 -60 14 -59 15 -79 18 -180
26 -47 4 -88 9 -91 11 -3 2 -8 2 -10 0z"/>
</g>
</svg>
