<?xml version="1.0" encoding="utf-8"?>
<!-- Generator: Adobe Illustrator 26.0.3, SVG Export Plug-In . SVG Version: 6.00 Build 0)  -->
<svg version="1.2" baseProfile="tiny" id="Layer_1" xmlns="http://www.w3.org/2000/svg" xmlns:xlink="http://www.w3.org/1999/xlink"
	 x="0px" y="0px" viewBox="0 0 203.07 260.42" overflow="visible" xml:space="preserve">
<path d="M198.57,83.35C198.57,83.35,198.57,83.35,198.57,83.35L198.57,83.35l-79.04-45.63v20.78l56.54,32.64l-74.54,43.03L27,91.15
	l56.54-32.64V37.72L4.5,83.35C1.72,84.96,0,87.93,0,91.15V198c0,3.22,1.72,6.19,4.5,7.79l92.54,53.43c1.39,0.8,2.95,1.21,4.5,1.21
	s3.11-0.4,4.5-1.21l92.54-53.43c2.78-1.61,4.5-4.58,4.5-7.79V91.15C203.07,87.93,201.36,84.96,198.57,83.35z M92.54,235.84L18,192.8
	v-86.07l48.83,28.19l25.7,14.84V235.84z M185.07,192.8l-74.54,43.03v-86.07l74.54-43.03V192.8z"/>
<path d="M101.54,97.42c-4.97,0-9-4.03-9-9V9c0-4.97,4.03-9,9-9s9,4.03,9,9v79.42C110.54,93.4,106.51,97.42,101.54,97.42z"/>
</svg>
